<svg width="200" height="50" viewBox="0 0 200 50" fill="none" xmlns="http://www.w3.org/2000/svg">
<rect width="200" height="50" rx="5" fill="#231F20"/>
<path d="M44.5031 19.4H37.3931V32H38.6531V26.42H44.2331V25.232H38.6531V20.588H44.5031V19.4ZM46.6568 32H47.9168V19.4H46.6568V32ZM58.9052 29.66L51.8852 19.4H50.8052V32H52.0652V21.74L59.0852 32H60.1652V19.4H58.9052V29.66ZM63.0396 19.4V32H67.8996C69.6096 32 71.0316 31.388 72.1476 30.182C73.2816 28.958 73.8396 27.464 73.8396 25.7C73.8396 23.936 73.2816 22.442 72.1476 21.236C71.0316 20.012 69.6096 19.4 67.8996 19.4H63.0396ZM64.2996 30.812V20.588H67.8996C69.2856 20.588 70.4016 21.074 71.2836 22.064C72.1656 23.054 72.6156 24.26 72.6156 25.7C72.6156 27.14 72.1656 28.346 71.2836 29.336C70.4016 30.326 69.2856 30.812 67.8996 30.812H64.2996ZM86.2367 26.006V27.194H91.2407C91.1147 28.292 90.6287 29.21 89.7827 29.93C88.9367 30.632 87.8027 30.992 86.3807 30.992C84.8147 30.992 83.5187 30.488 82.5287 29.462C81.5387 28.436 81.0347 27.194 81.0347 25.7C81.0347 24.206 81.5387 22.964 82.5287 21.938C83.5187 20.912 84.8147 20.408 86.3807 20.408C88.2527 20.408 89.9267 21.398 90.7187 22.928L91.8347 22.28C91.3127 21.344 90.5567 20.588 89.5847 20.03C88.6127 19.472 87.5507 19.184 86.3807 19.184C84.4727 19.184 82.8887 19.814 81.6467 21.074C80.4047 22.334 79.7747 23.882 79.7747 25.7C79.7747 27.518 80.4047 29.066 81.6467 30.326C82.8887 31.586 84.4727 32.216 86.3807 32.216C88.2527 32.216 89.7467 31.676 90.8627 30.614C91.9787 29.534 92.5367 28.22 92.5367 26.654V26.006H86.2367ZM94.6978 32H95.9578V19.4H94.6978V32ZM105.956 19.4H98.8463V32H100.106V26.42H105.686V25.232H100.106V20.588H105.956V19.4ZM107.03 19.4V20.588H110.9V32H112.16V20.588H116.03V19.4H107.03ZM130.431 29.66L123.411 19.4H122.331V32H123.591V21.74L130.611 32H131.691V19.4H130.431V29.66ZM144.987 30.326C146.247 29.048 146.877 27.518 146.877 25.7C146.877 23.882 146.247 22.352 144.987 21.092C143.727 19.814 142.179 19.184 140.361 19.184C138.543 19.184 136.995 19.814 135.735 21.092C134.475 22.352 133.845 23.882 133.845 25.7C133.845 27.518 134.475 29.048 135.735 30.326C136.995 31.586 138.543 32.216 140.361 32.216C142.179 32.216 143.727 31.586 144.987 30.326ZM136.617 29.462C135.609 28.436 135.105 27.176 135.105 25.7C135.105 24.224 135.609 22.982 136.617 21.956C137.625 20.93 138.867 20.408 140.361 20.408C141.855 20.408 143.097 20.93 144.105 21.956C145.113 22.982 145.617 24.224 145.617 25.7C145.617 27.176 145.113 28.436 144.105 29.462C143.097 30.488 141.855 30.992 140.361 30.992C138.867 30.992 137.625 30.488 136.617 29.462ZM152.753 32L156.047 21.056L159.341 32H160.853L164.507 19.4H163.175L160.061 30.29L156.785 19.4H155.309L152.033 30.29L148.919 19.4H147.587L151.241 32H152.753Z" fill="white"/>
</svg>
