<svg width="48" height="48" viewBox="0 0 48 48" fill="none" xmlns="http://www.w3.org/2000/svg">
<g filter="url(#filter0_d)">
<path d="M24 0.799805C13.396 0.799805 4.8 9.39581 4.8 19.9998C4.8 30.6038 13.396 39.1998 24 39.1998C34.604 39.1998 43.2 30.6038 43.2 19.9998C43.2 9.39581 34.604 0.799805 24 0.799805ZM25.314 24.5498C24.082 24.4558 23.566 23.8458 22.602 23.2618C22.072 26.0438 21.424 28.7118 19.504 30.1058C18.91 25.8978 20.372 22.7418 21.052 19.3878C19.894 17.4378 21.19 13.5158 23.634 14.4798C26.64 15.6718 21.03 21.7298 24.796 22.4878C28.728 23.2758 30.334 15.6638 27.896 13.1918C24.372 9.61781 17.642 13.1098 18.47 18.2258C18.67 19.4758 19.964 19.8558 18.986 21.5818C16.732 21.0818 16.058 19.3038 16.146 16.9338C16.284 13.0538 19.632 10.3358 22.988 9.9618C27.234 9.4898 31.218 11.5198 31.77 15.5158C32.388 20.0238 29.852 24.9018 25.314 24.5498Z" fill="black"/>
</g>
<defs>
<filter id="filter0_d" x="0" y="0" width="48" height="48" filterUnits="userSpaceOnUse" color-interpolation-filters="sRGB">
<feFlood flood-opacity="0" result="BackgroundImageFix"/>
<feColorMatrix in="SourceAlpha" type="matrix" values="0 0 0 0 0 0 0 0 0 0 0 0 0 0 0 0 0 0 127 0" result="hardAlpha"/>
<feOffset dy="4"/>
<feGaussianBlur stdDeviation="2"/>
<feComposite in2="hardAlpha" operator="out"/>
<feColorMatrix type="matrix" values="0 0 0 0 0 0 0 0 0 0 0 0 0 0 0 0 0 0 0.25 0"/>
<feBlend mode="normal" in2="BackgroundImageFix" result="effect1_dropShadow"/>
<feBlend mode="normal" in="SourceGraphic" in2="effect1_dropShadow" result="shape"/>
</filter>
</defs>
</svg>
