<svg width="32" height="32" viewBox="0 0 32 32" fill="none" xmlns="http://www.w3.org/2000/svg">
<path d="M4.00008 7.99999C3.26675 7.99999 2.66675 8.59999 2.66675 9.33332V26.6667C2.66675 28.1333 3.86675 29.3333 5.33341 29.3333H22.6667C23.4001 29.3333 24.0001 28.7333 24.0001 28C24.0001 27.2667 23.4001 26.6667 22.6667 26.6667H6.66675C5.93341 26.6667 5.33341 26.0667 5.33341 25.3333V9.33332C5.33341 8.59999 4.73341 7.99999 4.00008 7.99999ZM26.6667 2.66666H10.6667C9.20008 2.66666 8.00008 3.86666 8.00008 5.33332V21.3333C8.00008 22.8 9.20008 24 10.6667 24H26.6667C28.1334 24 29.3334 22.8 29.3334 21.3333V5.33332C29.3334 3.86666 28.1334 2.66666 26.6667 2.66666ZM24.0001 14.6667H13.3334C12.6001 14.6667 12.0001 14.0667 12.0001 13.3333C12.0001 12.6 12.6001 12 13.3334 12H24.0001C24.7334 12 25.3334 12.6 25.3334 13.3333C25.3334 14.0667 24.7334 14.6667 24.0001 14.6667ZM18.6667 20H13.3334C12.6001 20 12.0001 19.4 12.0001 18.6667C12.0001 17.9333 12.6001 17.3333 13.3334 17.3333H18.6667C19.4001 17.3333 20.0001 17.9333 20.0001 18.6667C20.0001 19.4 19.4001 20 18.6667 20ZM24.0001 9.33332H13.3334C12.6001 9.33332 12.0001 8.73332 12.0001 7.99999C12.0001 7.26666 12.6001 6.66666 13.3334 6.66666H24.0001C24.7334 6.66666 25.3334 7.26666 25.3334 7.99999C25.3334 8.73332 24.7334 9.33332 24.0001 9.33332Z" fill="#444B53"/>
</svg>
